<svg width="35" height="28" viewBox="0 0 35 28" fill="none" xmlns="http://www.w3.org/2000/svg">
<path d="M27.0122 21.5129C26.7541 21.5129 26.5123 21.4323 26.2865 21.271C25.7543 20.8678 25.6414 20.1099 26.0446 19.5777C28.5764 16.2073 28.5764 11.4984 26.0446 8.12793C25.6414 7.59576 25.7543 6.83782 26.2865 6.43466C26.8187 6.0315 27.5766 6.14438 27.9798 6.67655C31.1405 10.9017 31.1405 16.804 27.9798 21.0291C27.7379 21.3516 27.3831 21.5129 27.0122 21.5129Z" fill="#393939"/>
<path d="M29.9604 25.5445C29.7024 25.5445 29.4605 25.4639 29.2347 25.3026C28.7026 24.8994 28.5897 24.1415 28.9928 23.6093C33.2986 17.8683 33.2986 9.83732 28.9928 4.09632C28.5897 3.56414 28.7026 2.8062 29.2347 2.40304C29.7669 1.99988 30.5248 2.11277 30.928 2.64494C35.8788 9.24064 35.8788 18.465 30.928 25.0607C30.7022 25.3832 30.3313 25.5445 29.9604 25.5445Z" fill="#393939"/>
<path d="M20.5934 0.59913C18.7873 -0.400708 16.4812 -0.142686 14.1267 1.32482L9.41783 4.27595C9.0953 4.46947 8.72439 4.58235 8.35348 4.58235H6.85373H6.04741C2.14481 4.58235 0 6.72717 0 10.6298V17.0804C0 20.983 2.14481 23.1278 6.04741 23.1278H6.85373H8.35348C8.72439 23.1278 9.0953 23.2407 9.41783 23.4342L14.1267 26.3853C15.5459 27.2723 16.9327 27.7077 18.2229 27.7077C19.0614 27.7077 19.8677 27.5142 20.5934 27.111C22.3835 26.1112 23.3833 24.0308 23.3833 21.2571V6.45302C23.3833 3.67928 22.3835 1.59897 20.5934 0.59913Z" fill="#393939"/>
</svg>
